<?xml version="1.0" standalone="no"?>
<!DOCTYPE svg PUBLIC "-//W3C//DTD SVG 20010904//EN"
 "http://www.w3.org/TR/2001/REC-SVG-20010904/DTD/svg10.dtd">
<svg version="1.0" xmlns="http://www.w3.org/2000/svg"
 width="224.000000pt" height="224.000000pt" viewBox="0 0 224.000000 224.000000"
 preserveAspectRatio="xMidYMid meet">
<metadata>
Created by potrace 1.14, written by Peter Selinger 2001-2017
</metadata>
<g transform="translate(0.000000,224.000000) scale(0.100000,-0.100000)"
fill="#000000" stroke="none">
<path d="M0 1185 l0 -1055 35 0 c33 0 35 2 35 34 0 32 3 35 33 38 28 3 32 7
35 36 3 28 7 32 33 32 27 0 29 -3 29 -35 0 -33 2 -35 35 -35 33 0 35 -2 35
-35 0 -33 2 -35 35 -35 32 0 35 -2 35 -29 0 -26 4 -30 33 -33 28 -3 32 -7 35
-35 l3 -33 100 0 99 0 0 35 0 35 -65 0 -65 0 0 35 c0 33 -2 35 -35 35 -33 0
-35 2 -35 35 0 33 -2 35 -35 35 -32 0 -35 2 -35 29 0 26 -4 30 -32 33 -29 3
-33 6 -33 33 0 27 4 30 32 33 29 3 33 7 33 33 0 29 6 33 48 29 19 -1 22 3 22
34 0 34 2 36 35 36 33 0 35 2 35 34 0 32 3 35 33 38 28 3 32 7 35 36 3 28 7
32 33 32 l29 0 0 -135 0 -135 35 0 c33 0 35 -2 35 -35 0 -33 2 -35 34 -35 l33
0 2 -62 c2 -64 7 -82 21 -73 4 3 15 2 24 -1 12 -5 16 -21 16 -70 l0 -64 715 0
715 0 0 1120 0 1120 -1120 0 -1120 0 0 -1055z m1360 275 c0 -29 1 -30 50 -31
28 -1 55 -3 60 -4 6 -1 14 -3 18 -4 4 0 8 -13 7 -28 0 -28 1 -28 68 -31 l67
-3 0 -34 0 -35 100 0 100 0 0 -64 0 -65 -32 -3 -33 -3 -3 -67 -3 -68 -34 0
c-33 0 -35 -2 -35 -35 0 -33 -2 -35 -33 -35 -31 0 -33 -2 -29 -29 l4 -30 -101
-3 -101 -3 0 33 c0 30 -2 32 -35 32 -33 0 -35 -2 -35 -35 0 -33 -2 -35 -35
-35 -33 0 -35 2 -35 35 0 33 -2 35 -35 35 -33 0 -35 2 -35 35 0 33 2 35 35 35
33 0 35 2 35 35 0 33 -2 35 -35 35 l-35 0 0 64 0 65 -32 3 -33 3 -3 88 c-2 52
2 94 8 102 7 8 27 10 61 7 55 -5 69 4 69 46 0 19 5 22 35 22 32 0 35 -2 35
-30z m470 -545 c0 -32 -2 -35 -30 -35 -28 0 -30 3 -30 35 0 32 2 35 30 35 28
0 30 -3 30 -35z m-270 -235 l0 -129 -67 -3 -68 -3 -3 -37 c-3 -37 -3 -38 32
-38 33 0 36 -2 36 -30 l0 -30 -135 0 -135 0 0 -35 0 -35 135 0 135 0 0 -36 c0
-33 -2 -35 -27 -34 -16 1 -61 2 -100 1 l-73 -1 0 -35 c0 -32 2 -35 30 -35 27
0 30 -3 30 -30 0 -27 -3 -30 -30 -30 -28 0 -30 -3 -30 -35 l0 -35 -65 0 -65 0
0 35 c0 33 -2 35 -35 35 -39 0 -35 -14 -39 135 -1 60 -1 60 -33 63 l-32 3 -3
67 -3 67 -30 0 -30 0 -3 103 -3 102 35 0 c32 0 35 3 38 33 3 28 6 32 33 31 17
0 76 -1 133 -2 l102 -2 0 -30 0 -30 69 0 c49 0 69 -4 68 -12 -2 -50 3 -58 33
-58 l30 0 0 100 0 100 35 0 35 0 0 -130z"/>
<path d="M1290 985 c0 -33 2 -35 35 -35 33 0 35 2 35 35 0 33 -2 35 -35 35
-33 0 -35 -2 -35 -35z"/>
</g>
</svg>
